<svg xmlns="http://www.w3.org/2000/svg" viewBox="0 0 30 30"><path d="M24 3a2 2 0 0 0-1.729 1H18a1 1 0 0 0-1 1v2h-2.27A2 2 0 0 0 13 6a2 2 0 0 0-1.729 1H8a1 1 0 0 0-1 1v6H5.73A2 2 0 0 0 4 13a2 2 0 0 0-2 2 2 2 0 0 0 2 2 2 2 0 0 0 1.729-1H7v6a1 1 0 0 0 1 1h3.27A2 2 0 0 0 13 24a2 2 0 0 0 1.729-1H17v2a1 1 0 0 0 1 1h4.27A2 2 0 0 0 24 27a2 2 0 0 0 2-2 2 2 0 0 0-2-2 2 2 0 0 0-1.729 1H19v-1.832a1 1 0 0 0 0-.326V20h3.27A2 2 0 0 0 24 21a2 2 0 0 0 2-2 2 2 0 0 0-2-2 2 2 0 0 0-1.729 1H18a1 1 0 0 0-1 1v2h-2.27A2 2 0 0 0 13 20a2 2 0 0 0-1.729 1H9v-5.832a1 1 0 0 0 0-.326V9h2.27A2 2 0 0 0 13 10a2 2 0 0 0 1.729-1H17v2a1 1 0 0 0 1 1h4.27A2 2 0 0 0 24 13a2 2 0 0 0 2-2 2 2 0 0 0-2-2 2 2 0 0 0-1.729 1H19V8.168a1 1 0 0 0 0-.326V6h3.27A2 2 0 0 0 24 7a2 2 0 0 0 2-2 2 2 0 0 0-2-2z"/></svg>